<svg width="3403" height="905" viewBox="0 0 3403 905" fill="none" xmlns="http://www.w3.org/2000/svg">
<rect y="491.07" width="220" height="585" rx="110" transform="rotate(-45 0 491.07)" fill="#2563EB"/>
<rect x="766.07" y="904.727" width="220" height="585" rx="110" transform="rotate(-135 766.07 904.727)" fill="#2563EB"/>
<rect x="479" y="246" width="220" height="342" rx="110" fill="#2563EB"/>
<path d="M497.625 99.4547L577.709 132.415C581.461 133.946 585.442 134.75 589.5 134.75C593.558 134.75 597.539 133.946 601.291 132.415L694.084 94.2102C697.53 92.7938 699.75 89.4633 699.75 85.75C699.75 82.0367 697.53 78.7062 694.084 77.2898L601.291 39.0852C597.539 37.5539 593.558 36.75 589.5 36.75C585.442 36.75 581.461 37.5539 577.709 39.0852L484.916 77.2898C481.47 78.7062 479.25 82.0367 479.25 85.75V199.062C479.25 204.154 483.346 208.25 488.438 208.25C493.529 208.25 497.625 204.154 497.625 199.062V99.4547ZM516 126.902V171.5C516 191.789 548.922 208.25 589.5 208.25C630.078 208.25 663 191.789 663 171.5V126.864L608.296 149.412C602.324 151.862 595.97 153.125 589.5 153.125C583.03 153.125 576.676 151.862 570.704 149.412L516 126.864V126.902Z" fill="#2563EB"/>
<path d="M1379.48 290.863C1379.48 258.614 1404.98 233.113 1437.23 233.113C1468.73 233.113 1494.98 258.614 1494.98 290.863V700.364C1494.98 731.864 1468.73 757.364 1437.23 757.364C1404.98 757.364 1379.48 731.864 1379.48 700.364V290.863ZM1847.28 553.364H1691.28V641.114H1847.28C1872.03 641.114 1890.78 620.864 1890.78 597.614C1890.78 574.364 1872.03 553.364 1847.28 553.364ZM1804.53 348.614H1691.28V437.864H1804.53C1828.53 437.864 1848.03 416.864 1848.03 392.864C1848.03 369.614 1828.53 348.614 1804.53 348.614ZM1575.03 700.364V290.863C1575.03 258.614 1600.53 233.113 1632.03 233.113H1804.53C1891.53 233.113 1965.03 303.614 1965.03 392.864C1965.03 420.614 1956.78 446.863 1944.78 470.864C1983.03 499.364 2008.53 545.864 2008.53 597.614C2008.53 685.364 1935.03 757.364 1847.28 757.364H1632.03C1600.53 757.364 1575.03 731.864 1575.03 700.364ZM2066.49 290.863C2066.49 258.614 2091.99 233.113 2124.24 233.113C2155.74 233.113 2181.99 258.614 2181.99 290.863V700.364C2181.99 731.864 2155.74 757.364 2124.24 757.364C2091.99 757.364 2066.49 731.864 2066.49 700.364V290.863ZM2262.05 700.364V290.863C2262.05 258.614 2287.55 233.113 2319.05 233.113C2352.05 233.113 2378.3 258.614 2378.3 290.863V641.114H2554.55C2586.05 641.114 2613.05 667.364 2613.05 700.364C2613.05 731.864 2586.05 757.364 2554.55 757.364H2319.05C2287.55 757.364 2262.05 731.864 2262.05 700.364ZM2655.36 290.863C2655.36 258.614 2680.86 233.113 2713.11 233.113C2744.61 233.113 2770.86 258.614 2770.86 290.863V700.364C2770.86 731.864 2744.61 757.364 2713.11 757.364C2680.86 757.364 2655.36 731.864 2655.36 700.364V290.863ZM2850.91 700.364V291.613C2850.91 259.363 2877.16 233.113 2908.66 233.113C2927.41 233.113 2945.41 241.364 2957.41 257.864L3105.91 458.864L3255.16 257.864C3266.41 241.364 3285.16 233.113 3303.16 233.113C3335.41 233.113 3361.66 259.363 3361.66 291.613V700.364C3361.66 731.864 3335.41 758.114 3303.91 758.114C3271.66 758.114 3244.66 731.864 3244.66 700.364V469.364L3153.91 595.364C3141.91 611.114 3123.91 619.364 3105.91 619.364C3087.91 619.364 3070.66 611.114 3058.66 595.364L2966.41 469.364V700.364C2966.41 731.864 2941.66 757.364 2908.66 757.364C2877.16 757.364 2850.91 731.864 2850.91 700.364Z" fill="#2563EB"/>
</svg>
