<svg width="3023" height="849" viewBox="0 0 3023 849" fill="none" xmlns="http://www.w3.org/2000/svg">
<path d="M400 0C620.541 0 800 175.208 800 393.676C800 568.884 685.405 715.972 523.243 764.641C477.838 778.701 438.919 805.739 411.892 842.511C405.405 851.163 394.595 851.163 388.108 842.511C361.081 805.739 322.162 778.701 276.757 764.641C114.595 715.972 0 568.884 0 393.676C0 175.208 179.459 0 400 0Z" fill="#2563EB"/>
<path d="M400 293.094C374.919 293.094 354.595 313.427 354.595 338.518V575.373C354.595 600.465 374.919 620.797 400 620.797C425.081 620.797 445.405 600.465 445.405 575.373V338.518C445.405 313.427 425.081 293.094 400 293.094Z" fill="white"/>
<path d="M400 114.642L553.514 183.86L400 253.078L246.486 183.86L400 114.642Z" fill="white"/>
<path d="M327.568 219.55C355.676 240.099 379.459 249.833 400 249.833C420.541 249.833 444.324 240.099 472.432 219.55L451.892 274.708C435.676 288.768 364.324 288.768 348.108 274.708L327.568 219.55Z" fill="white"/>
<path d="M331.892 221.713C360 242.262 379.459 250.915 400 250.915C420.541 250.915 440 242.262 468.108 221.713" stroke="#2563EB" stroke-width="10" stroke-linecap="round"/>
<path d="M502.703 188.186C529.73 206.572 535.135 234.692 518.919 261.73" stroke="white" stroke-width="18" stroke-linecap="round" stroke-linejoin="round"/>
<path d="M515.676 286.605C522.84 286.605 528.649 280.795 528.649 273.627C528.649 266.459 522.84 260.648 515.676 260.648C508.511 260.648 502.703 266.459 502.703 273.627C502.703 280.795 508.511 286.605 515.676 286.605Z" fill="white"/>
<path d="M999.75 220.5C999.75 188.25 1025.25 162.75 1057.5 162.75C1089 162.75 1115.25 188.25 1115.25 220.5V630C1115.25 661.5 1089 687 1057.5 687C1025.25 687 999.75 661.5 999.75 630V220.5ZM1467.56 483H1311.56V570.75H1467.56C1492.31 570.75 1511.06 550.5 1511.06 527.25C1511.06 504 1492.31 483 1467.56 483ZM1424.81 278.25H1311.56V367.5H1424.81C1448.81 367.5 1468.31 346.5 1468.31 322.5C1468.31 299.25 1448.81 278.25 1424.81 278.25ZM1195.31 630V220.5C1195.31 188.25 1220.81 162.75 1252.31 162.75H1424.81C1511.81 162.75 1585.31 233.25 1585.31 322.5C1585.31 350.25 1577.06 376.5 1565.06 400.5C1603.31 429 1628.81 475.5 1628.81 527.25C1628.81 615 1555.31 687 1467.56 687H1252.31C1220.81 687 1195.31 661.5 1195.31 630ZM1686.76 220.5C1686.76 188.25 1712.26 162.75 1744.51 162.75C1776.01 162.75 1802.26 188.25 1802.26 220.5V630C1802.26 661.5 1776.01 687 1744.51 687C1712.26 687 1686.76 661.5 1686.76 630V220.5ZM1882.32 630V220.5C1882.32 188.25 1907.82 162.75 1939.32 162.75C1972.32 162.75 1998.57 188.25 1998.57 220.5V570.75H2174.82C2206.32 570.75 2233.32 597 2233.32 630C2233.32 661.5 2206.32 687 2174.82 687H1939.32C1907.82 687 1882.32 661.5 1882.32 630ZM2275.63 220.5C2275.63 188.25 2301.13 162.75 2333.38 162.75C2364.88 162.75 2391.13 188.25 2391.13 220.5V630C2391.13 661.5 2364.88 687 2333.38 687C2301.13 687 2275.63 661.5 2275.63 630V220.5ZM2471.19 630V221.25C2471.19 189 2497.44 162.75 2528.94 162.75C2547.69 162.75 2565.69 171 2577.69 187.5L2726.19 388.5L2875.44 187.5C2886.69 171 2905.44 162.75 2923.44 162.75C2955.69 162.75 2981.94 189 2981.94 221.25V630C2981.94 661.5 2955.69 687.75 2924.19 687.75C2891.94 687.75 2864.94 661.5 2864.94 630V399L2774.19 525C2762.19 540.75 2744.19 549 2726.19 549C2708.19 549 2690.94 540.75 2678.94 525L2586.69 399V630C2586.69 661.5 2561.94 687 2528.94 687C2497.44 687 2471.19 661.5 2471.19 630Z" fill="#2563EB"/>
</svg>
