<svg width="3403" height="820" viewBox="0 0 3403 820" fill="none" xmlns="http://www.w3.org/2000/svg">
<rect y="406.07" width="220" height="585" rx="110" transform="rotate(-45 0 406.07)" fill="#2563EB"/>
<rect x="766.07" y="819.727" width="220" height="585" rx="110" transform="rotate(-135 766.07 819.727)" fill="#2563EB"/>
<rect x="480" width="220" height="502" rx="110" fill="#2563EB"/>
<path d="M1379.48 205.863C1379.48 173.614 1404.98 148.113 1437.23 148.113C1468.73 148.113 1494.98 173.614 1494.98 205.863V615.364C1494.98 646.864 1468.73 672.364 1437.23 672.364C1404.98 672.364 1379.48 646.864 1379.48 615.364V205.863ZM1847.28 468.364H1691.28V556.114H1847.28C1872.03 556.114 1890.78 535.864 1890.78 512.614C1890.78 489.364 1872.03 468.364 1847.28 468.364ZM1804.53 263.614H1691.28V352.864H1804.53C1828.53 352.864 1848.03 331.864 1848.03 307.864C1848.03 284.614 1828.53 263.614 1804.53 263.614ZM1575.03 615.364V205.863C1575.03 173.614 1600.53 148.113 1632.03 148.113H1804.53C1891.53 148.113 1965.03 218.614 1965.03 307.864C1965.03 335.614 1956.78 361.863 1944.78 385.864C1983.03 414.364 2008.53 460.864 2008.53 512.614C2008.53 600.364 1935.03 672.364 1847.28 672.364H1632.03C1600.53 672.364 1575.03 646.864 1575.03 615.364ZM2066.49 205.863C2066.49 173.614 2091.99 148.113 2124.24 148.113C2155.74 148.113 2181.99 173.614 2181.99 205.863V615.364C2181.99 646.864 2155.74 672.364 2124.24 672.364C2091.99 672.364 2066.49 646.864 2066.49 615.364V205.863ZM2262.05 615.364V205.863C2262.05 173.614 2287.55 148.113 2319.05 148.113C2352.05 148.113 2378.3 173.614 2378.3 205.863V556.114H2554.55C2586.05 556.114 2613.05 582.364 2613.05 615.364C2613.05 646.864 2586.05 672.364 2554.55 672.364H2319.05C2287.55 672.364 2262.05 646.864 2262.05 615.364ZM2655.36 205.863C2655.36 173.614 2680.86 148.113 2713.11 148.113C2744.61 148.113 2770.86 173.614 2770.86 205.863V615.364C2770.86 646.864 2744.61 672.364 2713.11 672.364C2680.86 672.364 2655.36 646.864 2655.36 615.364V205.863ZM2850.91 615.364V206.613C2850.91 174.363 2877.16 148.113 2908.66 148.113C2927.41 148.113 2945.41 156.364 2957.41 172.864L3105.91 373.864L3255.16 172.864C3266.41 156.364 3285.16 148.113 3303.16 148.113C3335.41 148.113 3361.66 174.363 3361.66 206.613V615.364C3361.66 646.864 3335.41 673.114 3303.91 673.114C3271.66 673.114 3244.66 646.864 3244.66 615.364V384.364L3153.91 510.364C3141.91 526.114 3123.91 534.364 3105.91 534.364C3087.91 534.364 3070.66 526.114 3058.66 510.364L2966.41 384.364V615.364C2966.41 646.864 2941.66 672.364 2908.66 672.364C2877.16 672.364 2850.91 646.864 2850.91 615.364Z" fill="#2563EB"/>
</svg>
